<svg xmlns="http://www.w3.org/2000/svg" xmlns:xlink="http://www.w3.org/1999/xlink" width="50" zoomAndPan="magnify" viewBox="0 0 37.5 37.499999" height="50" preserveAspectRatio="xMidYMid meet" version="1.0"><defs><clipPath id="3c8f41670f"><path d="M 0 0 L 37.007812 0 L 37.007812 37 L 0 37 Z M 0 0 " clip-rule="nonzero"/></clipPath></defs><g clip-path="url(#3c8f41670f)"><path fill="#8b5e3c" d="M 18.507812 -0.0078125 C 28.730469 -0.0078125 37.011719 8.277344 37.011719 18.496094 C 37.011719 26.296875 32.1875 32.96875 25.359375 35.691406 L 25.089844 29.859375 L 25.089844 29.847656 C 25.101562 28.695312 25.589844 27.789062 26.671875 27.332031 L 26.808594 27.273438 L 26.816406 27.273438 L 26.824219 27.269531 L 26.839844 27.265625 C 27.632812 26.941406 28.28125 26.507812 28.722656 25.757812 C 29.273438 24.820312 29.382812 23.574219 29.382812 22.515625 C 29.382812 20.476562 28.78125 18.070312 27.746094 16.304688 C 27.007812 15.054688 25.847656 13.785156 24.28125 13.785156 C 22.714844 13.785156 21.550781 15.054688 20.816406 16.304688 C 19.78125 18.070312 19.179688 20.476562 19.179688 22.515625 C 19.179688 23.578125 19.285156 24.824219 19.835938 25.757812 C 20.285156 26.511719 20.9375 26.949219 21.738281 27.269531 C 21.761719 27.277344 21.78125 27.289062 21.804688 27.296875 L 21.8125 27.296875 L 21.878906 27.328125 C 22.964844 27.78125 23.457031 28.679688 23.472656 29.847656 L 23.472656 29.859375 L 23.167969 36.410156 C 21.679688 36.796875 20.117188 37 18.507812 37 C 16.84375 37 15.230469 36.78125 13.691406 36.367188 L 13.410156 30.234375 L 13.410156 30.222656 C 13.421875 29.039062 13.929688 28.109375 15.035156 27.640625 L 15.175781 27.585938 L 15.179688 27.582031 L 15.183594 27.582031 L 15.203125 27.574219 C 15.980469 27.257812 16.617188 26.832031 17.050781 26.097656 C 17.597656 25.171875 17.699219 23.9375 17.699219 22.890625 C 17.699219 22.789062 17.695312 22.6875 17.691406 22.585938 C 17.6875 22.527344 17.683594 22.46875 17.675781 22.410156 L 17.664062 22.324219 L 17.679688 22.265625 L 17.007812 14.441406 L 16.304688 14.441406 L 16.242188 22.714844 L 15.070312 22.828125 L 14.375 13.480469 L 13.613281 13.527344 L 13.460938 22.945312 L 13.046875 22.960938 C 12.960938 22.964844 12.871094 22.96875 12.785156 22.96875 C 12.699219 22.96875 12.613281 22.964844 12.527344 22.960938 L 12.113281 22.945312 L 11.902344 13.527344 L 11.136719 13.480469 L 10.503906 22.832031 L 9.328125 22.714844 L 9.269531 14.441406 L 8.5625 14.441406 L 7.652344 22.269531 L 7.667969 22.328125 L 7.65625 22.410156 C 7.652344 22.46875 7.648438 22.527344 7.644531 22.585938 C 7.636719 22.6875 7.632812 22.789062 7.632812 22.890625 C 7.632812 23.9375 7.738281 25.171875 8.28125 26.097656 C 8.71875 26.839844 9.363281 27.265625 10.148438 27.582031 C 10.167969 27.589844 10.183594 27.597656 10.203125 27.601562 L 10.207031 27.601562 L 10.289062 27.636719 C 11.398438 28.105469 11.910156 29.027344 11.925781 30.222656 L 11.925781 30.234375 L 11.671875 35.699219 C 4.835938 32.980469 0 26.304688 0 18.5 C 0.0078125 8.277344 8.289062 -0.0078125 18.507812 -0.0078125 " fill-opacity="1" fill-rule="evenodd"/></g></svg>