<svg xmlns="http://www.w3.org/2000/svg" xmlns:xlink="http://www.w3.org/1999/xlink" width="900" zoomAndPan="magnify" viewBox="0 0 675 44.999999" height="60" preserveAspectRatio="xMidYMid meet" version="1.0"><defs><clipPath id="6adae2021c"><path d="M 680.164062 0 L 656.164062 4.148438 C 632.164062 8.5 584.164062 16.5 536.164062 19.148438 C 488.164062 21.5 440.164062 18.5 392.164062 15.851562 C 344.164062 13.5 296.164062 11.5 248.164062 11.648438 C 200.164062 11.5 152.164062 13.5 104.164062 17.5 C 56.164062 21.5 8.164062 28.5 -39.835938 30.851562 C -87.835938 33.5 -135.835938 31.5 -183.835938 27.5 C -231.835938 23.5 -279.835938 16.5 -327.835938 16.648438 C -375.835938 16.5 -423.835938 23.5 -471.835938 21.648438 C -519.835938 20 -567.835938 10 -615.835938 12.5 C -663.835938 15 -711.835938 30 -759.835938 37.5 C -807.835938 45 -855.835938 45 -903.835938 43.351562 C -951.835938 41.5 -999.835938 38.5 -1047.835938 30.851562 C -1095.835938 23.5 -1143.835938 11.5 -1191.835938 7.5 C -1239.835938 3.5 -1287.835938 6.5 -1335.835938 10.851562 C -1383.835938 15 -1431.835938 20 -1479.835938 20.851562 C -1527.835938 21.5 -1575.835938 18.5 -1623.835938 14.148438 C -1671.835938 10 -1719.835938 5 -1767.835938 2.5 C -1815.835938 0 -1863.835938 0 -1911.835938 0.851562 C -1959.835938 1.5 -2007.835938 3.5 -2055.835938 3.351562 C -2103.835938 3.5 -2151.835938 1.5 -2199.835938 1.648438 C -2247.835938 1.5 -2295.835938 3.5 -2343.835938 9.148438 C -2391.835938 15 -2439.835938 25 -2487.835938 28.351562 C -2535.835938 31.5 -2583.835938 28.5 -2631.835938 25.851562 C -2679.835938 23.5 -2727.835938 21.5 -2751.835938 20.851562 L -2775.835938 20 L -2775.835938 -5 L -2751.835938 -5 C -2727.835938 -5 -2679.835938 -5 -2631.835938 -5 C -2583.835938 -5 -2535.835938 -5 -2487.835938 -5 C -2439.835938 -5 -2391.835938 -5 -2343.835938 -5 C -2295.835938 -5 -2247.835938 -5 -2199.835938 -5 C -2151.835938 -5 -2103.835938 -5 -2055.835938 -5 C -2007.835938 -5 -1959.835938 -5 -1911.835938 -5 C -1863.835938 -5 -1815.835938 -5 -1767.835938 -5 C -1719.835938 -5 -1671.835938 -5 -1623.835938 -5 C -1575.835938 -5 -1527.835938 -5 -1479.835938 -5 C -1431.835938 -5 -1383.835938 -5 -1335.835938 -5 C -1287.835938 -5 -1239.835938 -5 -1191.835938 -5 C -1143.835938 -5 -1095.835938 -5 -1047.835938 -5 C -999.835938 -5 -951.835938 -5 -903.835938 -5 C -855.835938 -5 -807.835938 -5 -759.835938 -5 C -711.835938 -5 -663.835938 -5 -615.835938 -5 C -567.835938 -5 -519.835938 -5 -471.835938 -5 C -423.835938 -5 -375.835938 -5 -327.835938 -5 C -279.835938 -5 -231.835938 -5 -183.835938 -5 C -135.835938 -5 -87.835938 -5 -39.835938 -5 C 8.164062 -5 56.164062 -5 104.164062 -5 C 152.164062 -5 200.164062 -5 248.164062 -5 C 296.164062 -5 344.164062 -5 392.164062 -5 C 440.164062 -5 488.164062 -5 536.164062 -5 C 584.164062 -5 632.164062 -5 656.164062 -5 L 680.164062 -5 Z M 680.164062 0 " clip-rule="nonzero"/></clipPath></defs><g clip-path="url(#6adae2021c)"><rect x="-67.5" width="810" fill="#8b5e3c" y="-4.5" height="53.999999" fill-opacity="1"/></g></svg>